PathFileType	4	(X/Y/Z)	C:\Users\dbl\Desktop\LZH\BX\bx_y_0_901.trc
DataRate	CameraRate	NumFrames	NumMarkers	Units	OrigDataRate	OrigDataStartFrame	OrigNumFrames
50.00	50.00	      6	43	mm	50.00	1068	      1220
Frame#	Time	Top.Head			R.Acromium			L.Acromium			Sternum			R.ASIS			L.ASIS			V.Sacral			R.Thigh.Upper			R.Thigh.Front			R.Thigh.Rear			R.Knee.Lat			R.Knee.Med			R.Shank.Upper			R.Shank.Front			R.Shank.Rear			R.Ankle.Lat			R.Midfoot.Lat			R.Toe.Lat			R.Toe.Tip			R.Toe.Med			R.Ankle.Med			R.Midfoot.Sup			R.Heel			L.Thigh.Upper			L.Thigh.Front			L.Thigh.Rear			L.Knee.Lat			L.Knee.Med			L.Shank.Upper			L.Shank.Front			L.Shank.Rear			L.Ankle.Lat			L.Midfoot.Lat			L.Toe.Lat			L.Toe.Tip			L.Toe.Med			L.Ankle.Med			L.Midfoot.Sup			L.Heel			origin1 front left			origin2 front right			origin 3 back right			origin 4 back leftt			
		X1	Y1	Z1	X2	Y2	Z2	X3	Y3	Z3	X4	Y4	Z4	X5	Y5	Z5	X6	Y6	Z6	X7	Y7	Z7	X8	Y8	Z8	X9	Y9	Z9	X10	Y10	Z10	X11	Y11	Z11	X12	Y12	Z12	X13	Y13	Z13	X14	Y14	Z14	X15	Y15	Z15	X16	Y16	Z16	X17	Y17	Z17	X18	Y18	Z18	X19	Y19	Z19	X20	Y20	Z20	X21	Y21	Z21	X22	Y22	Z22	X23	Y23	Z23	X24	Y24	Z24	X25	Y25	Z25	X26	Y26	Z26	X27	Y27	Z27	X28	Y28	Z28	X29	Y29	Z29	X30	Y30	Z30	X31	Y31	Z31	X32	Y32	Z32	X33	Y33	Z33	X34	Y34	Z34	X35	Y35	Z35	X36	Y36	Z36	X37	Y37	Z37	X38	Y38	Z38	X39	Y39	Z39	X40	Y40	Z40	X41	Y41	Z41	X42	Y42	Z42	X43	Y43	Z43	

1068	21.340	-691.00446	269.00543	1827.04785	-633.05548	66.74683	1531.15942	-613.04785	463.11407	1507.91541	-516.70593	265.54913	1405.79846	-489.38800	149.74144	1057.94897	-485.90891	390.52731	1061.41052	-683.08636	250.26445	1042.90662	-524.85461	97.17812	891.19830	-480.27536	158.22249	838.81189	-578.84137	93.58255	748.56140	-618.98560	126.83524	601.88092	-605.88110	234.52411	560.18121	-657.66650	125.58135	543.96637	-575.90363	174.35739	541.71759	-701.76495	128.12315	479.63110	-685.04169	147.71146	216.36554	-615.74243	78.96808	167.99770	-570.92200	52.90706	162.42857	-491.38275	93.44240	160.13249	-531.34863	145.60107	162.85220	-630.24506	221.14012	217.67953	-591.52576	190.12196	166.36691	-716.11090	215.48543	170.63745	-520.92261	434.78046	880.98492	-476.11816	372.39755	833.84552	-570.52106	433.22009	746.03693	-624.57568	413.17462	625.14532	-591.26617	311.82303	571.74542	-638.48267	411.64474	562.32275	-585.91675	370.59250	534.53320	-692.41730	415.30038	513.45276	-677.06152	412.90338	213.39102	-585.44910	468.52728	164.38194	-546.91534	479.83475	159.32362	-486.91849	428.60681	168.55099	-524.11914	387.37024	176.82889	-640.83789	325.09430	206.26656	-592.86188	347.04538	167.94133	-731.88336	341.31531	164.95988	-444.00064	448.65540	148.13943	-450.23825	76.22433	143.30087	-806.25641	82.69032	142.55685	-799.12524	457.44958	145.11554	
1069	21.360	-691.81830	269.02655	1827.03735	-633.83160	66.87807	1530.97046	-613.86292	463.21841	1507.90979	-517.52667	265.67041	1405.83240	-489.90750	149.79977	1058.06738	-486.27924	390.60849	1061.37732	-683.52283	250.24826	1042.89465	-525.16571	97.34138	891.14441	-480.51889	158.29663	838.88263	-579.00012	93.66195	748.58887	-619.16931	126.98552	601.84833	-605.92590	234.58095	560.18372	-657.85962	125.72345	543.93549	-575.94446	174.36586	541.75073	-701.82581	128.31810	479.62497	-685.04187	147.73952	216.35129	-615.70880	78.97499	168.01973	-570.94269	52.86350	162.47598	-491.38138	93.46500	160.13675	-531.33020	145.66513	162.87398	-630.24634	221.18440	217.68889	-591.64001	190.33481	166.12810	-716.11682	215.47870	170.62631	-521.28870	434.83600	880.97211	-476.48868	372.62628	833.82819	-570.87732	433.36618	746.21533	-624.83478	413.15219	625.22003	-591.50745	311.85855	571.78418	-638.65729	411.64658	562.31897	-586.12537	370.64822	534.62750	-692.54767	415.32495	513.41595	-677.09113	412.90738	213.37973	-585.43799	468.50653	164.37421	-546.91339	479.83908	159.33873	-486.92401	428.61685	168.57939	-524.09259	387.38672	176.81093	-640.84052	325.08420	206.26839	-592.83002	347.06393	167.95990	-731.90381	341.34225	164.91830	-444.00104	448.68280	148.13249	-450.21225	76.26506	143.34242	-806.29333	82.70748	142.53294	-799.11444	457.44998	145.12523	
1070	21.380	-692.60083	269.00986	1827.12952	-634.54443	67.00771	1530.74805	-614.66455	463.25916	1507.87341	-518.21509	265.84619	1405.89600	-490.35223	149.81859	1058.16138	-486.66229	390.76428	1061.47632	-683.95111	250.27251	1042.85974	-525.50262	97.53636	891.05249	-480.75726	158.35966	839.01074	-579.20654	93.74300	748.55627	-619.35657	127.14025	601.79095	-605.96356	234.64876	560.16583	-658.01428	125.82790	543.89069	-575.98993	174.38174	541.77405	-701.88330	128.46262	479.62372	-685.04108	147.76508	216.33644	-615.68927	78.97160	168.03040	-570.96936	52.80830	162.52039	-491.38672	93.48222	160.14514	-531.30798	145.73320	162.91443	-630.21979	221.20844	217.71880	-591.75842	190.56973	165.82991	-716.14081	215.47307	170.61745	-521.64764	434.95972	880.97485	-476.96417	372.87973	833.78967	-571.21820	433.51761	746.37463	-625.07959	413.25037	625.37671	-591.70905	311.88943	571.88812	-638.86310	411.62811	562.27863	-586.35034	370.76416	534.71881	-692.65283	415.34824	513.35095	-677.11621	412.92435	213.40793	-585.42816	468.47678	164.37024	-546.91901	479.83597	159.33961	-486.93155	428.60767	168.62851	-524.07288	387.40289	176.78050	-640.84167	325.09183	206.27634	-592.81281	347.08279	167.94673	-731.93829	341.36710	164.87624	-444.01035	448.69586	148.12552	-450.19986	76.29092	143.37045	-806.31891	82.72876	142.51097	-799.12280	457.48007	145.13174	
1071	21.400	-693.35077	268.92267	1827.28394	-635.20685	67.11826	1530.53369	-615.42639	463.29556	1507.84180	-518.78082	266.00717	1405.94592	-490.69476	149.83995	1058.21191	-487.13556	391.02179	1061.68018	-684.36084	250.36874	1042.77954	-525.80597	97.71366	890.99878	-480.98447	158.41046	839.17578	-579.41168	93.82323	748.49371	-619.50415	127.26134	601.74261	-606.03455	234.72929	560.13287	-658.10889	125.88535	543.84875	-576.06018	174.41814	541.78540	-701.93536	128.53452	479.62283	-685.04425	147.77757	216.32831	-615.69110	78.96465	168.03543	-570.98352	52.78273	162.53697	-491.38675	93.49453	160.15300	-531.27148	145.75862	162.98471	-630.18420	221.19910	217.74779	-591.83923	190.73918	165.56938	-716.16302	215.47198	170.61469	-522.01453	435.14514	880.95941	-477.42096	373.10532	833.84955	-571.53674	433.64755	746.48810	-625.29883	413.52197	625.59717	-591.88623	311.93799	572.02264	-639.07764	411.61795	562.22552	-586.57965	370.91721	534.77197	-692.72797	415.37509	513.28210	-677.14130	412.94257	213.40172	-585.43256	468.45615	164.37685	-546.93024	479.82928	159.33392	-486.93005	428.58115	168.67888	-524.08521	387.41214	176.75314	-640.85022	325.11938	206.27715	-592.82153	347.08749	167.93076	-731.95935	341.36182	164.86052	-444.01776	448.69339	148.12282	-450.19788	76.30201	143.38176	-806.32269	82.73504	142.50677	-799.13373	457.53094	145.12714	
1072	21.420	-694.04315	268.77057	1827.42578	-635.83386	67.19072	1530.37402	-616.14618	463.38293	1507.84558	-519.27563	266.15381	1405.95569	-490.99188	149.90009	1058.23901	-487.68298	391.32468	1061.91296	-684.73267	250.50902	1042.65674	-526.05444	97.85881	891.00690	-481.21472	158.46643	839.34375	-579.60614	93.89253	748.45471	-619.59308	127.33604	601.72406	-606.16052	234.80930	560.09979	-658.16296	125.91401	543.83551	-576.14502	174.49225	541.79297	-701.99554	128.57164	479.62811	-685.05695	147.77609	216.32855	-615.69843	78.96781	168.02722	-570.97668	52.80061	162.52473	-491.38098	93.50433	160.15779	-531.22119	145.72849	163.07651	-630.16815	221.16023	217.74644	-591.86871	190.81596	165.44542	-716.17047	215.47107	170.61598	-522.42493	435.35742	880.92981	-477.77457	373.25110	834.01971	-571.83722	433.75873	746.55756	-625.50854	413.91528	625.82635	-592.05566	312.00464	572.17365	-639.28571	411.63318	562.19623	-586.79034	371.05096	534.77997	-692.78723	415.40433	513.22400	-677.17511	412.94125	213.30638	-585.44690	468.45541	164.39732	-546.93964	479.82770	159.32133	-486.93320	428.54919	168.71860	-524.12860	387.41791	176.74181	-640.87396	325.16772	206.24678	-592.86005	347.06271	167.93533	-731.96313	341.34344	164.86317	-444.01318	448.68927	148.12514	-450.20093	76.29810	143.37686	-806.31769	82.72139	142.51823	-799.14374	457.55939	145.12634	
1073	21.440	-694.63898	268.60931	1827.50745	-636.43427	67.19701	1530.29346	-616.84808	463.51489	1507.88232	-519.79468	266.33011	1405.94019	-491.30841	150.01958	1058.28210	-488.20001	391.58588	1062.11816	-685.06439	250.64224	1042.52551	-526.29773	97.99004	891.03613	-481.45853	158.55536	839.49091	-579.82361	93.94258	748.46295	-619.63568	127.37305	601.72974	-606.32733	234.86172	560.06085	-658.22266	125.95406	543.86169	-576.21716	174.59894	541.80774	-702.08258	128.62660	479.64532	-685.07483	147.76945	216.33205	-615.69025	78.98020	167.99794	-570.94775	52.84055	162.49312	-491.38147	93.50910	160.16037	-531.17474	145.67741	163.15868	-630.19666	221.12421	217.70279	-591.86847	190.81035	165.48245	-716.16632	215.46487	170.61964	-522.87573	435.53900	880.93219	-478.04233	373.32709	834.20721	-572.10870	433.85416	746.57690	-625.72839	414.29849	626.00964	-592.20398	312.06906	572.34265	-639.48566	411.69028	562.20941	-586.95343	371.12869	534.77209	-692.85510	415.43762	513.17676	-677.22070	412.91443	213.16278	-585.46179	468.48315	164.42195	-546.94348	479.83340	159.29945	-486.95816	428.52423	168.74329	-524.17688	387.42426	176.74965	-640.90588	325.22180	206.20084	-592.91492	347.01804	167.96657	-731.96936	341.35178	164.85382	-443.99747	448.69781	148.12930	-450.20361	76.28095	143.36105	-806.31946	82.69714	142.53609	-799.15985	457.52698	145.15453	
